<svg xmlns="http://www.w3.org/2000/svg" width="30" height="30" viewBox="0 0 30 30">
  <path fill="#2BAD86" d="M15,0 C6.75,0 0,6.75 0,15 C0,23.25 6.75,30 15,30 C23.25,30 30,23.25 30,15 C30,6.75 23.25,0 15,0 Z M24,6 L18.140625,18.140625 L6,24 L11.859375,11.859375 L24,6 Z M15,13.359375 C14.0887305,13.359375 13.359375,14.0887305 13.359375,15 C13.359375,15.9112695 14.0887305,16.640625 15,16.640625 C15.9112695,16.640625 16.640625,15.9112695 16.640625,15 C16.640625,14.0887305 15.9112695,13.359375 15,13.359375 Z"/>
</svg>
