<svg xmlns="http://www.w3.org/2000/svg" width="33" height="30" viewBox="0 0 33 30">
  <path fill="#2BAD86" d="M19.6842105,5.23228219 C21.2362546,6.2825817 22.3246293,8.05903699 22.5236891,10.1220444 C23.1560926,10.4409857 23.8588668,10.625 24.603397,10.625 C27.3224288,10.625 29.5263158,8.24649158 29.5263158,5.31241609 C29.5263158,2.37800496 27.3224288,0 24.603397,0 C21.9092476,8.39098433e-05 19.7251111,2.33588222 19.6842105,5.23228219 Z M17.0795303,16.25 C19.7969148,16.25 22,13.8707827 22,10.9375 C22,8.00379772 19.7969148,5.625 17.0795303,5.625 C14.3619126,5.625 12.1578947,8.00371381 12.1578947,10.9375 C12.1579725,13.8707827 14.3619126,16.25 17.0795303,16.25 Z M18.8072745,16.25 L14.7728746,16.25 C11.4159192,16.25 8.68421053,19.2446508 8.68421053,22.9255295 L8.68421053,28.335564 L8.69705343,28.4202927 L9.03667695,28.5360638 C12.2404938,29.6330896 15.0238745,30 17.3150189,30 C21.7890818,30 24.383424,28.6012776 24.5432468,28.5117732 L24.8610148,28.3354817 L24.8947368,28.3354817 L24.8947368,22.9254472 C24.8948119,19.2446508 22.1646805,16.25 18.8072745,16.25 Z M26.7808613,10.625 L22.6899144,10.625 C22.6454859,12.3837679 21.946908,13.9675824 20.8421053,15.1060161 C23.8908636,16.0801321 26.121494,19.1176592 26.121494,22.7058524 L26.121494,24.375 C30.1598788,24.2152169 32.4874998,22.9860911 32.6408125,22.9032315 L32.9655469,22.7258047 L33,22.7258047 L33,17.3077739 C33.0004604,13.6231172 30.2097553,10.625 26.7808613,10.625 Z M8.39543644,10.625 C9.35823926,10.625 10.253492,10.3214142 11.0127117,9.80461346 C11.2541508,8.10619432 12.097711,6.62174529 13.3022639,5.61121904 C13.3073166,5.51153415 13.3157895,5.4131079 13.3157895,5.31241609 C13.3157895,2.37800496 11.1119769,0 8.39543644,0 C5.676564,0 3.47368421,2.37792105 3.47368421,5.31241609 C3.47368421,8.24699504 5.67648626,10.625 8.39543644,10.625 Z M12.7368421,15.1171945 C11.6292133,13.981376 10.9279702,12.402289 10.8763411,10.6493827 C10.7240045,10.6372327 10.5727499,10.625 10.4170125,10.625 L6.26574261,10.625 C2.81069207,10.625 0,13.6305964 0,17.3249408 L0,22.7559916 L0.0128299754,22.8405457 L0.362794604,22.9572518 C3.00716073,23.8415571 5.36810806,24.2479622 7.41866274,24.375 L7.41866274,22.735411 C7.41904919,19.1388451 9.66529963,16.0932447 12.7368421,15.1171945 Z"/>
</svg>
