<svg xmlns="http://www.w3.org/2000/svg" width="32" height="30" viewBox="0 0 32 30">
  <path fill="#2BAD86" fill-rule="evenodd" d="M26.0920172,28.1020247 C19.2980393,29.7834801 14.3448276,25.5517489 14.3448276,21.0212751 C14.3448276,16.670321 18.5388076,13.5294118 23.1724138,13.5294118 C27.8343395,13.5294118 32,16.6936175 32,21.0212751 C32,22.5560999 31.4565357,24.0635171 30.4936734,25.2324506 C30.4545656,26.6028298 31.2461624,28.5693241 31.9608921,30 C30.0473045,29.6478125 27.3245889,28.8708075 26.0920172,28.1020247 L26.0920172,28.1020247 Z M23.5953526,10.9952262 C24.7931,10.9952262 25.9475879,11.1591696 27.0344828,11.4608804 C27.0060937,4.80119826 20.5982805,0 13.5185932,0 C6.37942415,0 0,4.85906062 0,11.5063437 C0,13.8621684 0.831393484,16.1780405 2.30492015,17.974529 C2.36845754,20.0782391 1.15448786,23.0967256 0.0594818102,25.2941176 C2.99031282,24.7554466 7.15944698,23.5610022 9.04799445,22.3803345 C10.1335375,22.6503588 11.1785247,22.7991478 12.195123,22.8804306 C12.1045484,22.3582917 12.0423629,21.826509 12.0423629,21.2823273 C12.0423629,15.6104383 17.2253915,10.9952262 23.5953526,10.9952262 Z"/>
</svg>
